<svg xmlns="http://www.w3.org/2000/svg" width="1093" height="1080" viewBox="0 0 1093 1080">
  <g id="Group_47" data-name="Group 47" transform="translate(-827)">
    <rect id="Rectangle_39" data-name="Rectangle 39" width="1093" height="1080" transform="translate(827)" fill="#e63946"/>
    <g id="Group_46" data-name="Group 46">
      <g id="Group_45" data-name="Group 45">
        <rect id="Rectangle_141" data-name="Rectangle 141" width="394" height="371" transform="translate(1526)" fill="#fff" opacity="0.1"/>
        <g id="Group_42" data-name="Group 42" transform="translate(94 458)">
          <rect id="Rectangle_40" data-name="Rectangle 40" width="20" height="20" rx="5" transform="translate(893 150)" fill="#fff" opacity="0.2"/>
          <rect id="Rectangle_41" data-name="Rectangle 41" width="20" height="20" rx="5" transform="translate(923 150)" fill="#fff" opacity="0.2"/>
          <rect id="Rectangle_42" data-name="Rectangle 42" width="20" height="20" rx="5" transform="translate(953 150)" fill="#fff" opacity="0.2"/>
          <rect id="Rectangle_43" data-name="Rectangle 43" width="20" height="20" rx="5" transform="translate(983 150)" fill="#fff" opacity="0.2"/>
          <rect id="Rectangle_44" data-name="Rectangle 44" width="20" height="20" rx="5" transform="translate(1013 150)" fill="#fff" opacity="0.2"/>
          <rect id="Rectangle_45" data-name="Rectangle 45" width="20" height="20" rx="5" transform="translate(1043 150)" fill="#fff" opacity="0.2"/>
          <rect id="Rectangle_46" data-name="Rectangle 46" width="20" height="20" rx="5" transform="translate(1073 150)" fill="#fff" opacity="0.2"/>
          <rect id="Rectangle_47" data-name="Rectangle 47" width="20" height="20" rx="5" transform="translate(1103 150)" fill="#fff" opacity="0.2"/>
          <rect id="Rectangle_48" data-name="Rectangle 48" width="20" height="20" rx="5" transform="translate(1133 150)" fill="#fff" opacity="0.2"/>
          <rect id="Rectangle_49" data-name="Rectangle 49" width="20" height="20" rx="5" transform="translate(1163 150)" fill="#fff" opacity="0.2"/>
          <rect id="Rectangle_50" data-name="Rectangle 50" width="20" height="20" rx="5" transform="translate(893 180)" fill="#fff" opacity="0.2"/>
          <rect id="Rectangle_51" data-name="Rectangle 51" width="20" height="20" rx="5" transform="translate(923 180)" fill="#fff" opacity="0.2"/>
          <rect id="Rectangle_52" data-name="Rectangle 52" width="20" height="20" rx="5" transform="translate(953 180)" fill="#fff" opacity="0.2"/>
          <rect id="Rectangle_53" data-name="Rectangle 53" width="20" height="20" rx="5" transform="translate(983 180)" fill="#fff" opacity="0.2"/>
          <rect id="Rectangle_54" data-name="Rectangle 54" width="20" height="20" rx="5" transform="translate(1013 180)" fill="#fff" opacity="0.2"/>
          <rect id="Rectangle_55" data-name="Rectangle 55" width="20" height="20" rx="5" transform="translate(1043 180)" fill="#fff" opacity="0.2"/>
          <rect id="Rectangle_56" data-name="Rectangle 56" width="20" height="20" rx="5" transform="translate(1073 180)" fill="#fff" opacity="0.2"/>
          <rect id="Rectangle_57" data-name="Rectangle 57" width="20" height="20" rx="5" transform="translate(1103 180)" fill="#fff" opacity="0.2"/>
          <rect id="Rectangle_58" data-name="Rectangle 58" width="20" height="20" rx="5" transform="translate(1133 180)" fill="#fff" opacity="0.2"/>
          <rect id="Rectangle_59" data-name="Rectangle 59" width="20" height="20" rx="5" transform="translate(1163 180)" fill="#fff" opacity="0.2"/>
          <rect id="Rectangle_60" data-name="Rectangle 60" width="20" height="20" rx="5" transform="translate(893 210)" fill="#fff" opacity="0.2"/>
          <rect id="Rectangle_61" data-name="Rectangle 61" width="20" height="20" rx="5" transform="translate(923 210)" fill="#fff" opacity="0.2"/>
          <rect id="Rectangle_62" data-name="Rectangle 62" width="20" height="20" rx="5" transform="translate(953 210)" fill="#fff" opacity="0.2"/>
          <rect id="Rectangle_63" data-name="Rectangle 63" width="20" height="20" rx="5" transform="translate(983 210)" fill="#fff" opacity="0.2"/>
          <rect id="Rectangle_64" data-name="Rectangle 64" width="20" height="20" rx="5" transform="translate(1013 210)" fill="#fff" opacity="0.2"/>
          <rect id="Rectangle_65" data-name="Rectangle 65" width="20" height="20" rx="5" transform="translate(1043 210)" fill="#fff" opacity="0.2"/>
          <rect id="Rectangle_66" data-name="Rectangle 66" width="20" height="20" rx="5" transform="translate(1073 210)" fill="#fff" opacity="0.2"/>
          <rect id="Rectangle_67" data-name="Rectangle 67" width="20" height="20" rx="5" transform="translate(1103 210)" fill="#fff" opacity="0.2"/>
          <rect id="Rectangle_68" data-name="Rectangle 68" width="20" height="20" rx="5" transform="translate(1133 210)" fill="#fff" opacity="0.2"/>
          <rect id="Rectangle_69" data-name="Rectangle 69" width="20" height="20" rx="5" transform="translate(1163 210)" fill="#fff" opacity="0.2"/>
          <rect id="Rectangle_70" data-name="Rectangle 70" width="20" height="20" rx="5" transform="translate(893 240)" fill="#fff" opacity="0.2"/>
          <rect id="Rectangle_71" data-name="Rectangle 71" width="20" height="20" rx="5" transform="translate(923 240)" fill="#fff" opacity="0.2"/>
          <rect id="Rectangle_72" data-name="Rectangle 72" width="20" height="20" rx="5" transform="translate(953 240)" fill="#fff" opacity="0.2"/>
          <rect id="Rectangle_73" data-name="Rectangle 73" width="20" height="20" rx="5" transform="translate(983 240)" fill="#fff" opacity="0.2"/>
          <rect id="Rectangle_74" data-name="Rectangle 74" width="20" height="20" rx="5" transform="translate(1013 240)" fill="#fff" opacity="0.2"/>
          <rect id="Rectangle_75" data-name="Rectangle 75" width="20" height="20" rx="5" transform="translate(1043 240)" fill="#fff" opacity="0.2"/>
          <rect id="Rectangle_76" data-name="Rectangle 76" width="20" height="20" rx="5" transform="translate(1073 240)" fill="#fff" opacity="0.2"/>
          <rect id="Rectangle_77" data-name="Rectangle 77" width="20" height="20" rx="5" transform="translate(1103 240)" fill="#fff" opacity="0.2"/>
          <rect id="Rectangle_78" data-name="Rectangle 78" width="20" height="20" rx="5" transform="translate(1133 240)" fill="#fff" opacity="0.2"/>
          <rect id="Rectangle_79" data-name="Rectangle 79" width="20" height="20" rx="5" transform="translate(1163 240)" fill="#fff" opacity="0.2"/>
          <rect id="Rectangle_80" data-name="Rectangle 80" width="20" height="20" rx="5" transform="translate(893 270)" fill="#fff" opacity="0.2"/>
          <rect id="Rectangle_81" data-name="Rectangle 81" width="20" height="20" rx="5" transform="translate(923 270)" fill="#fff" opacity="0.2"/>
          <rect id="Rectangle_82" data-name="Rectangle 82" width="20" height="20" rx="5" transform="translate(953 270)" fill="#fff" opacity="0.2"/>
          <rect id="Rectangle_83" data-name="Rectangle 83" width="20" height="20" rx="5" transform="translate(983 270)" fill="#fff" opacity="0.2"/>
          <rect id="Rectangle_84" data-name="Rectangle 84" width="20" height="20" rx="5" transform="translate(1013 270)" fill="#fff" opacity="0.2"/>
          <rect id="Rectangle_85" data-name="Rectangle 85" width="20" height="20" rx="5" transform="translate(1043 270)" fill="#fff" opacity="0.2"/>
          <rect id="Rectangle_86" data-name="Rectangle 86" width="20" height="20" rx="5" transform="translate(1073 270)" fill="#fff" opacity="0.2"/>
          <rect id="Rectangle_87" data-name="Rectangle 87" width="20" height="20" rx="5" transform="translate(1103 270)" fill="#fff" opacity="0.2"/>
          <rect id="Rectangle_88" data-name="Rectangle 88" width="20" height="20" rx="5" transform="translate(1133 270)" fill="#fff" opacity="0.2"/>
          <rect id="Rectangle_89" data-name="Rectangle 89" width="20" height="20" rx="5" transform="translate(1163 270)" fill="#fff" opacity="0.2"/>
          <rect id="Rectangle_90" data-name="Rectangle 90" width="20" height="20" rx="5" transform="translate(893 300)" fill="#fff" opacity="0.2"/>
          <rect id="Rectangle_91" data-name="Rectangle 91" width="20" height="20" rx="5" transform="translate(923 300)" fill="#fff" opacity="0.2"/>
          <rect id="Rectangle_92" data-name="Rectangle 92" width="20" height="20" rx="5" transform="translate(953 300)" fill="#fff" opacity="0.2"/>
          <rect id="Rectangle_93" data-name="Rectangle 93" width="20" height="20" rx="5" transform="translate(983 300)" fill="#fff" opacity="0.2"/>
          <rect id="Rectangle_94" data-name="Rectangle 94" width="20" height="20" rx="5" transform="translate(1013 300)" fill="#fff" opacity="0.2"/>
          <rect id="Rectangle_95" data-name="Rectangle 95" width="20" height="20" rx="5" transform="translate(1043 300)" fill="#fff" opacity="0.2"/>
          <rect id="Rectangle_96" data-name="Rectangle 96" width="20" height="20" rx="5" transform="translate(1073 300)" fill="#fff" opacity="0.2"/>
          <rect id="Rectangle_97" data-name="Rectangle 97" width="20" height="20" rx="5" transform="translate(1103 300)" fill="#fff" opacity="0.2"/>
          <rect id="Rectangle_98" data-name="Rectangle 98" width="20" height="20" rx="5" transform="translate(1133 300)" fill="#fff" opacity="0.2"/>
          <rect id="Rectangle_99" data-name="Rectangle 99" width="20" height="20" rx="5" transform="translate(1163 300)" fill="#fff" opacity="0.2"/>
          <rect id="Rectangle_100" data-name="Rectangle 100" width="20" height="20" rx="5" transform="translate(893 330)" fill="#fff" opacity="0.2"/>
          <rect id="Rectangle_101" data-name="Rectangle 101" width="20" height="20" rx="5" transform="translate(923 330)" fill="#fff" opacity="0.2"/>
          <rect id="Rectangle_102" data-name="Rectangle 102" width="20" height="20" rx="5" transform="translate(953 330)" fill="#fff" opacity="0.2"/>
          <rect id="Rectangle_103" data-name="Rectangle 103" width="20" height="20" rx="5" transform="translate(983 330)" fill="#fff" opacity="0.2"/>
          <rect id="Rectangle_104" data-name="Rectangle 104" width="20" height="20" rx="5" transform="translate(1013 330)" fill="#fff" opacity="0.2"/>
          <rect id="Rectangle_105" data-name="Rectangle 105" width="20" height="20" rx="5" transform="translate(1043 330)" fill="#fff" opacity="0.2"/>
          <rect id="Rectangle_106" data-name="Rectangle 106" width="20" height="20" rx="5" transform="translate(1073 330)" fill="#fff" opacity="0.2"/>
          <rect id="Rectangle_107" data-name="Rectangle 107" width="20" height="20" rx="5" transform="translate(1103 330)" fill="#fff" opacity="0.2"/>
          <rect id="Rectangle_108" data-name="Rectangle 108" width="20" height="20" rx="5" transform="translate(1133 330)" fill="#fff" opacity="0.2"/>
          <rect id="Rectangle_109" data-name="Rectangle 109" width="20" height="20" rx="5" transform="translate(1163 330)" fill="#fff" opacity="0.2"/>
          <rect id="Rectangle_110" data-name="Rectangle 110" width="20" height="20" rx="5" transform="translate(893 360)" fill="#fff" opacity="0.2"/>
          <rect id="Rectangle_111" data-name="Rectangle 111" width="20" height="20" rx="5" transform="translate(923 360)" fill="#fff" opacity="0.2"/>
          <rect id="Rectangle_112" data-name="Rectangle 112" width="20" height="20" rx="5" transform="translate(953 360)" fill="#fff" opacity="0.2"/>
          <rect id="Rectangle_113" data-name="Rectangle 113" width="20" height="20" rx="5" transform="translate(983 360)" fill="#fff" opacity="0.2"/>
          <rect id="Rectangle_114" data-name="Rectangle 114" width="20" height="20" rx="5" transform="translate(1013 360)" fill="#fff" opacity="0.2"/>
          <rect id="Rectangle_115" data-name="Rectangle 115" width="20" height="20" rx="5" transform="translate(1043 360)" fill="#fff" opacity="0.2"/>
          <rect id="Rectangle_116" data-name="Rectangle 116" width="20" height="20" rx="5" transform="translate(1073 360)" fill="#fff" opacity="0.2"/>
          <rect id="Rectangle_117" data-name="Rectangle 117" width="20" height="20" rx="5" transform="translate(1103 360)" fill="#fff" opacity="0.2"/>
          <rect id="Rectangle_118" data-name="Rectangle 118" width="20" height="20" rx="5" transform="translate(1133 360)" fill="#fff" opacity="0.2"/>
          <rect id="Rectangle_119" data-name="Rectangle 119" width="20" height="20" rx="5" transform="translate(1163 360)" fill="#fff" opacity="0.2"/>
          <rect id="Rectangle_120" data-name="Rectangle 120" width="20" height="20" rx="5" transform="translate(893 390)" fill="#fff" opacity="0.2"/>
          <rect id="Rectangle_121" data-name="Rectangle 121" width="20" height="20" rx="5" transform="translate(923 390)" fill="#fff" opacity="0.2"/>
          <rect id="Rectangle_122" data-name="Rectangle 122" width="20" height="20" rx="5" transform="translate(953 390)" fill="#fff" opacity="0.2"/>
          <rect id="Rectangle_123" data-name="Rectangle 123" width="20" height="20" rx="5" transform="translate(983 390)" fill="#fff" opacity="0.2"/>
          <rect id="Rectangle_124" data-name="Rectangle 124" width="20" height="20" rx="5" transform="translate(1013 390)" fill="#fff" opacity="0.2"/>
          <rect id="Rectangle_125" data-name="Rectangle 125" width="20" height="20" rx="5" transform="translate(1043 390)" fill="#fff" opacity="0.2"/>
          <rect id="Rectangle_126" data-name="Rectangle 126" width="20" height="20" rx="5" transform="translate(1073 390)" fill="#fff" opacity="0.2"/>
          <rect id="Rectangle_127" data-name="Rectangle 127" width="20" height="20" rx="5" transform="translate(1103 390)" fill="#fff" opacity="0.2"/>
          <rect id="Rectangle_128" data-name="Rectangle 128" width="20" height="20" rx="5" transform="translate(1133 390)" fill="#fff" opacity="0.2"/>
          <rect id="Rectangle_129" data-name="Rectangle 129" width="20" height="20" rx="5" transform="translate(1163 390)" fill="#fff" opacity="0.2"/>
          <rect id="Rectangle_130" data-name="Rectangle 130" width="20" height="20" rx="5" transform="translate(893 420)" fill="#fff" opacity="0.2"/>
          <rect id="Rectangle_131" data-name="Rectangle 131" width="20" height="20" rx="5" transform="translate(923 420)" fill="#fff" opacity="0.2"/>
          <rect id="Rectangle_132" data-name="Rectangle 132" width="20" height="20" rx="5" transform="translate(953 420)" fill="#fff" opacity="0.2"/>
          <rect id="Rectangle_133" data-name="Rectangle 133" width="20" height="20" rx="5" transform="translate(983 420)" fill="#fff" opacity="0.2"/>
          <rect id="Rectangle_134" data-name="Rectangle 134" width="20" height="20" rx="5" transform="translate(1013 420)" fill="#fff" opacity="0.2"/>
          <rect id="Rectangle_135" data-name="Rectangle 135" width="20" height="20" rx="5" transform="translate(1043 420)" fill="#fff" opacity="0.2"/>
          <rect id="Rectangle_136" data-name="Rectangle 136" width="20" height="20" rx="5" transform="translate(1073 420)" fill="#fff" opacity="0.2"/>
          <rect id="Rectangle_137" data-name="Rectangle 137" width="20" height="20" rx="5" transform="translate(1103 420)" fill="#fff" opacity="0.2"/>
          <rect id="Rectangle_138" data-name="Rectangle 138" width="20" height="20" rx="5" transform="translate(1133 420)" fill="#fff" opacity="0.2"/>
          <rect id="Rectangle_139" data-name="Rectangle 139" width="20" height="20" rx="5" transform="translate(1163 420)" fill="#fff" opacity="0.2"/>
        </g>
        <g id="Group_43" data-name="Group 43" transform="translate(634 -24.837)">
          <rect id="Rectangle_40-2" data-name="Rectangle 40" width="17" height="17" rx="5" transform="translate(893 149.837)" fill="#fff" opacity="0.2"/>
          <rect id="Rectangle_41-2" data-name="Rectangle 41" width="17" height="17" rx="5" transform="translate(918 149.837)" fill="#fff" opacity="0.2"/>
          <rect id="Rectangle_42-2" data-name="Rectangle 42" width="17" height="17" rx="5" transform="translate(944 149.837)" fill="#fff" opacity="0.2"/>
          <rect id="Rectangle_43-2" data-name="Rectangle 43" width="17" height="17" rx="5" transform="translate(969 149.837)" fill="#fff" opacity="0.2"/>
          <rect id="Rectangle_44-2" data-name="Rectangle 44" width="17" height="17" rx="5" transform="translate(994 149.837)" fill="#fff" opacity="0.2"/>
          <rect id="Rectangle_45-2" data-name="Rectangle 45" width="17" height="17" rx="5" transform="translate(1020 149.837)" fill="#fff" opacity="0.2"/>
          <rect id="Rectangle_46-2" data-name="Rectangle 46" width="17" height="17" rx="5" transform="translate(1045 149.837)" fill="#fff" opacity="0.2"/>
          <rect id="Rectangle_47-2" data-name="Rectangle 47" width="17" height="17" rx="5" transform="translate(1070 149.837)" fill="#fff" opacity="0.2"/>
          <rect id="Rectangle_48-2" data-name="Rectangle 48" width="17" height="17" rx="5" transform="translate(1096 149.837)" fill="#fff" opacity="0.2"/>
          <rect id="Rectangle_49-2" data-name="Rectangle 49" width="17" height="17" rx="5" transform="translate(1121 149.837)" fill="#fff" opacity="0.2"/>
          <rect id="Rectangle_50-2" data-name="Rectangle 50" width="17" height="17" rx="5" transform="translate(893 174.837)" fill="#fff" opacity="0.2"/>
          <rect id="Rectangle_51-2" data-name="Rectangle 51" width="17" height="17" rx="5" transform="translate(918 174.837)" fill="#fff" opacity="0.2"/>
          <rect id="Rectangle_52-2" data-name="Rectangle 52" width="17" height="17" rx="5" transform="translate(944 174.837)" fill="#fff" opacity="0.2"/>
          <rect id="Rectangle_53-2" data-name="Rectangle 53" width="17" height="17" rx="5" transform="translate(969 174.837)" fill="#fff" opacity="0.2"/>
          <rect id="Rectangle_54-2" data-name="Rectangle 54" width="17" height="17" rx="5" transform="translate(994 174.837)" fill="#fff" opacity="0.2"/>
          <rect id="Rectangle_55-2" data-name="Rectangle 55" width="17" height="17" rx="5" transform="translate(1020 174.837)" fill="#fff" opacity="0.2"/>
          <rect id="Rectangle_56-2" data-name="Rectangle 56" width="17" height="17" rx="5" transform="translate(1045 174.837)" fill="#fff" opacity="0.2"/>
          <rect id="Rectangle_57-2" data-name="Rectangle 57" width="17" height="17" rx="5" transform="translate(1070 174.837)" fill="#fff" opacity="0.2"/>
          <rect id="Rectangle_58-2" data-name="Rectangle 58" width="17" height="17" rx="5" transform="translate(1096 174.837)" fill="#fff" opacity="0.2"/>
          <rect id="Rectangle_59-2" data-name="Rectangle 59" width="17" height="17" rx="5" transform="translate(1121 174.837)" fill="#fff" opacity="0.2"/>
          <rect id="Rectangle_60-2" data-name="Rectangle 60" width="17" height="17" rx="5" transform="translate(893 200.837)" fill="#fff" opacity="0.2"/>
          <rect id="Rectangle_61-2" data-name="Rectangle 61" width="17" height="17" rx="5" transform="translate(918 200.837)" fill="#fff" opacity="0.2"/>
          <rect id="Rectangle_62-2" data-name="Rectangle 62" width="17" height="17" rx="5" transform="translate(944 200.837)" fill="#fff" opacity="0.2"/>
          <rect id="Rectangle_63-2" data-name="Rectangle 63" width="17" height="17" rx="5" transform="translate(969 200.837)" fill="#fff" opacity="0.2"/>
          <rect id="Rectangle_64-2" data-name="Rectangle 64" width="17" height="17" rx="5" transform="translate(994 200.837)" fill="#fff" opacity="0.2"/>
          <rect id="Rectangle_65-2" data-name="Rectangle 65" width="17" height="17" rx="5" transform="translate(1020 200.837)" fill="#fff" opacity="0.2"/>
          <rect id="Rectangle_66-2" data-name="Rectangle 66" width="17" height="17" rx="5" transform="translate(1045 200.837)" fill="#fff" opacity="0.2"/>
          <rect id="Rectangle_67-2" data-name="Rectangle 67" width="17" height="17" rx="5" transform="translate(1070 200.837)" fill="#fff" opacity="0.2"/>
          <rect id="Rectangle_68-2" data-name="Rectangle 68" width="17" height="17" rx="5" transform="translate(1096 200.837)" fill="#fff" opacity="0.2"/>
          <rect id="Rectangle_69-2" data-name="Rectangle 69" width="17" height="17" rx="5" transform="translate(1121 200.837)" fill="#fff" opacity="0.2"/>
          <rect id="Rectangle_70-2" data-name="Rectangle 70" width="17" height="17" rx="5" transform="translate(893 225.837)" fill="#fff" opacity="0.2"/>
          <rect id="Rectangle_71-2" data-name="Rectangle 71" width="17" height="17" rx="5" transform="translate(918 225.837)" fill="#fff" opacity="0.2"/>
          <rect id="Rectangle_72-2" data-name="Rectangle 72" width="17" height="17" rx="5" transform="translate(944 225.837)" fill="#fff" opacity="0.2"/>
          <rect id="Rectangle_73-2" data-name="Rectangle 73" width="17" height="17" rx="5" transform="translate(969 225.837)" fill="#fff" opacity="0.2"/>
          <rect id="Rectangle_74-2" data-name="Rectangle 74" width="17" height="17" rx="5" transform="translate(994 225.837)" fill="#fff" opacity="0.2"/>
          <rect id="Rectangle_75-2" data-name="Rectangle 75" width="17" height="17" rx="5" transform="translate(1020 225.837)" fill="#fff" opacity="0.2"/>
          <rect id="Rectangle_76-2" data-name="Rectangle 76" width="17" height="17" rx="5" transform="translate(1045 225.837)" fill="#fff" opacity="0.2"/>
          <rect id="Rectangle_77-2" data-name="Rectangle 77" width="17" height="17" rx="5" transform="translate(1070 225.837)" fill="#fff" opacity="0.2"/>
          <rect id="Rectangle_78-2" data-name="Rectangle 78" width="17" height="17" rx="5" transform="translate(1096 225.837)" fill="#fff" opacity="0.2"/>
          <rect id="Rectangle_79-2" data-name="Rectangle 79" width="17" height="17" rx="5" transform="translate(1121 225.837)" fill="#fff" opacity="0.2"/>
          <rect id="Rectangle_80-2" data-name="Rectangle 80" width="17" height="17" rx="5" transform="translate(893 250.837)" fill="#fff" opacity="0.2"/>
          <rect id="Rectangle_81-2" data-name="Rectangle 81" width="17" height="17" rx="5" transform="translate(918 250.837)" fill="#fff" opacity="0.2"/>
          <rect id="Rectangle_82-2" data-name="Rectangle 82" width="17" height="17" rx="5" transform="translate(944 250.837)" fill="#fff" opacity="0.2"/>
          <rect id="Rectangle_83-2" data-name="Rectangle 83" width="17" height="17" rx="5" transform="translate(969 250.837)" fill="#fff" opacity="0.2"/>
          <rect id="Rectangle_84-2" data-name="Rectangle 84" width="17" height="17" rx="5" transform="translate(994 250.837)" fill="#fff" opacity="0.2"/>
          <rect id="Rectangle_85-2" data-name="Rectangle 85" width="17" height="17" rx="5" transform="translate(1020 250.837)" fill="#fff" opacity="0.2"/>
          <rect id="Rectangle_86-2" data-name="Rectangle 86" width="17" height="17" rx="5" transform="translate(1045 250.837)" fill="#fff" opacity="0.2"/>
          <rect id="Rectangle_87-2" data-name="Rectangle 87" width="17" height="17" rx="5" transform="translate(1070 250.837)" fill="#fff" opacity="0.2"/>
          <rect id="Rectangle_88-2" data-name="Rectangle 88" width="17" height="17" rx="5" transform="translate(1096 250.837)" fill="#fff" opacity="0.2"/>
          <rect id="Rectangle_89-2" data-name="Rectangle 89" width="17" height="17" rx="5" transform="translate(1121 250.837)" fill="#fff" opacity="0.2"/>
          <rect id="Rectangle_90-2" data-name="Rectangle 90" width="17" height="17" rx="5" transform="translate(893 276.837)" fill="#fff" opacity="0.2"/>
          <rect id="Rectangle_91-2" data-name="Rectangle 91" width="17" height="17" rx="5" transform="translate(918 276.837)" fill="#fff" opacity="0.2"/>
          <rect id="Rectangle_92-2" data-name="Rectangle 92" width="17" height="17" rx="5" transform="translate(944 276.837)" fill="#fff" opacity="0.2"/>
          <rect id="Rectangle_93-2" data-name="Rectangle 93" width="17" height="17" rx="5" transform="translate(969 276.837)" fill="#fff" opacity="0.2"/>
          <rect id="Rectangle_94-2" data-name="Rectangle 94" width="17" height="17" rx="5" transform="translate(994 276.837)" fill="#fff" opacity="0.2"/>
          <rect id="Rectangle_95-2" data-name="Rectangle 95" width="17" height="17" rx="5" transform="translate(1020 276.837)" fill="#fff" opacity="0.2"/>
          <rect id="Rectangle_96-2" data-name="Rectangle 96" width="17" height="17" rx="5" transform="translate(1045 276.837)" fill="#fff" opacity="0.2"/>
          <rect id="Rectangle_97-2" data-name="Rectangle 97" width="17" height="17" rx="5" transform="translate(1070 276.837)" fill="#fff" opacity="0.2"/>
          <rect id="Rectangle_98-2" data-name="Rectangle 98" width="17" height="17" rx="5" transform="translate(1096 276.837)" fill="#fff" opacity="0.2"/>
          <rect id="Rectangle_99-2" data-name="Rectangle 99" width="17" height="17" rx="5" transform="translate(1121 276.837)" fill="#fff" opacity="0.2"/>
          <rect id="Rectangle_100-2" data-name="Rectangle 100" width="17" height="17" rx="5" transform="translate(893 301.837)" fill="#fff" opacity="0.2"/>
          <rect id="Rectangle_101-2" data-name="Rectangle 101" width="17" height="17" rx="5" transform="translate(918 301.837)" fill="#fff" opacity="0.2"/>
          <rect id="Rectangle_102-2" data-name="Rectangle 102" width="17" height="17" rx="5" transform="translate(944 301.837)" fill="#fff" opacity="0.2"/>
          <rect id="Rectangle_103-2" data-name="Rectangle 103" width="17" height="17" rx="5" transform="translate(969 301.837)" fill="#fff" opacity="0.2"/>
          <rect id="Rectangle_104-2" data-name="Rectangle 104" width="17" height="17" rx="5" transform="translate(994 301.837)" fill="#fff" opacity="0.2"/>
          <rect id="Rectangle_105-2" data-name="Rectangle 105" width="17" height="17" rx="5" transform="translate(1020 301.837)" fill="#fff" opacity="0.2"/>
          <rect id="Rectangle_106-2" data-name="Rectangle 106" width="17" height="17" rx="5" transform="translate(1045 301.837)" fill="#fff" opacity="0.2"/>
          <rect id="Rectangle_107-2" data-name="Rectangle 107" width="17" height="17" rx="5" transform="translate(1070 301.837)" fill="#fff" opacity="0.2"/>
          <rect id="Rectangle_108-2" data-name="Rectangle 108" width="17" height="17" rx="5" transform="translate(1096 301.837)" fill="#fff" opacity="0.2"/>
          <rect id="Rectangle_109-2" data-name="Rectangle 109" width="17" height="17" rx="5" transform="translate(1121 301.837)" fill="#fff" opacity="0.2"/>
          <rect id="Rectangle_110-2" data-name="Rectangle 110" width="17" height="17" rx="5" transform="translate(893 326.837)" fill="#fff" opacity="0.2"/>
          <rect id="Rectangle_111-2" data-name="Rectangle 111" width="17" height="17" rx="5" transform="translate(918 326.837)" fill="#fff" opacity="0.2"/>
          <rect id="Rectangle_112-2" data-name="Rectangle 112" width="17" height="17" rx="5" transform="translate(944 326.837)" fill="#fff" opacity="0.2"/>
          <rect id="Rectangle_113-2" data-name="Rectangle 113" width="17" height="17" rx="5" transform="translate(969 326.837)" fill="#fff" opacity="0.2"/>
          <rect id="Rectangle_114-2" data-name="Rectangle 114" width="17" height="17" rx="5" transform="translate(994 326.837)" fill="#fff" opacity="0.2"/>
          <rect id="Rectangle_115-2" data-name="Rectangle 115" width="17" height="17" rx="5" transform="translate(1020 326.837)" fill="#fff" opacity="0.2"/>
          <rect id="Rectangle_116-2" data-name="Rectangle 116" width="17" height="17" rx="5" transform="translate(1045 326.837)" fill="#fff" opacity="0.2"/>
          <rect id="Rectangle_117-2" data-name="Rectangle 117" width="17" height="17" rx="5" transform="translate(1070 326.837)" fill="#fff" opacity="0.2"/>
          <rect id="Rectangle_118-2" data-name="Rectangle 118" width="17" height="17" rx="5" transform="translate(1096 326.837)" fill="#fff" opacity="0.2"/>
          <rect id="Rectangle_119-2" data-name="Rectangle 119" width="17" height="17" rx="5" transform="translate(1121 326.837)" fill="#fff" opacity="0.2"/>
          <rect id="Rectangle_120-2" data-name="Rectangle 120" width="17" height="17" rx="5" transform="translate(893 352.837)" fill="#fff" opacity="0.2"/>
          <rect id="Rectangle_121-2" data-name="Rectangle 121" width="17" height="17" rx="5" transform="translate(918 352.837)" fill="#fff" opacity="0.2"/>
          <rect id="Rectangle_122-2" data-name="Rectangle 122" width="17" height="17" rx="5" transform="translate(944 352.837)" fill="#fff" opacity="0.2"/>
          <rect id="Rectangle_123-2" data-name="Rectangle 123" width="17" height="17" rx="5" transform="translate(969 352.837)" fill="#fff" opacity="0.2"/>
          <rect id="Rectangle_124-2" data-name="Rectangle 124" width="17" height="17" rx="5" transform="translate(994 352.837)" fill="#fff" opacity="0.2"/>
          <rect id="Rectangle_125-2" data-name="Rectangle 125" width="17" height="17" rx="5" transform="translate(1020 352.837)" fill="#fff" opacity="0.2"/>
          <rect id="Rectangle_126-2" data-name="Rectangle 126" width="17" height="17" rx="5" transform="translate(1045 352.837)" fill="#fff" opacity="0.2"/>
          <rect id="Rectangle_127-2" data-name="Rectangle 127" width="17" height="17" rx="5" transform="translate(1070 352.837)" fill="#fff" opacity="0.2"/>
          <rect id="Rectangle_128-2" data-name="Rectangle 128" width="17" height="17" rx="5" transform="translate(1096 352.837)" fill="#fff" opacity="0.2"/>
          <rect id="Rectangle_129-2" data-name="Rectangle 129" width="17" height="17" rx="5" transform="translate(1121 352.837)" fill="#fff" opacity="0.2"/>
          <rect id="Rectangle_130-2" data-name="Rectangle 130" width="17" height="17" rx="5" transform="translate(893 377.837)" fill="#fff" opacity="0.2"/>
          <rect id="Rectangle_131-2" data-name="Rectangle 131" width="17" height="17" rx="5" transform="translate(918 377.837)" fill="#fff" opacity="0.2"/>
          <rect id="Rectangle_132-2" data-name="Rectangle 132" width="17" height="17" rx="5" transform="translate(944 377.837)" fill="#fff" opacity="0.2"/>
          <rect id="Rectangle_133-2" data-name="Rectangle 133" width="17" height="17" rx="5" transform="translate(969 377.837)" fill="#fff" opacity="0.2"/>
          <rect id="Rectangle_134-2" data-name="Rectangle 134" width="17" height="17" rx="5" transform="translate(994 377.837)" fill="#fff" opacity="0.2"/>
          <rect id="Rectangle_135-2" data-name="Rectangle 135" width="17" height="17" rx="5" transform="translate(1020 377.837)" fill="#fff" opacity="0.2"/>
          <rect id="Rectangle_136-2" data-name="Rectangle 136" width="17" height="17" rx="5" transform="translate(1045 377.837)" fill="#fff" opacity="0.2"/>
          <rect id="Rectangle_137-2" data-name="Rectangle 137" width="17" height="17" rx="5" transform="translate(1070 377.837)" fill="#fff" opacity="0.2"/>
          <rect id="Rectangle_138-2" data-name="Rectangle 138" width="17" height="17" rx="5" transform="translate(1096 377.837)" fill="#fff" opacity="0.2"/>
          <rect id="Rectangle_139-2" data-name="Rectangle 139" width="17" height="17" rx="5" transform="translate(1121 377.837)" fill="#fff" opacity="0.2"/>
        </g>
        <g id="humaaans_sitting-1" data-name="humaaans/sitting-1" transform="translate(1378 245.816)">
          <g id="A-Human_Sitting" data-name="A-Human/Sitting" transform="translate(472.418 558.184) rotate(180)">
            <g id="Head_Front_Airy" data-name="Head/Front/Airy" transform="translate(0 377.947)">
              <g id="Head" transform="translate(180.885)">
                <path id="Path_15" data-name="Path 15" d="M12.151,56.633C5.374,64.587.788,74.335,1.554,85.258c2.208,31.472,46.018,24.548,54.54,8.664s7.509-56.176-3.5-59.015C48.2,33.775,38.84,36.548,29.317,42.288L35.295,0H0Z" fill="#b28b67" fill-rule="evenodd"/>
              </g>
              <path id="hair" d="M216.862,57.76c-4.652.763-17.177,1.287-19.487,1.287-1.476,0-3.076-.337-3.95,1.018-.716,1.11-.454,2.987-.667,4.275-.248,1.5-.6,2.973-.957,4.446a45.214,45.214,0,0,1-4.694,11.925,36.653,36.653,0,0,1-17.374,15.73c-8.224,3.536-17.531,4.345-26.377,3.628-9.467-.767-18.036-3.892-26.975-6.833A56.533,56.533,0,0,0,90.034,90.7c-8.976,1.379-15.758,6.244-23.329,10.861-7.75,4.727-16.608,7.819-25.77,7.108-8.553-.664-16.436-4.2-23.508-8.913C10.81,95.34,5.351,90.03,2.268,82.556c-3.316-8.04-3.313-16.865,2.14-23.97,7.9-10.3,22.578-12.962,34.785-12.7a66.459,66.459,0,0,1,20.663,3.786C68.746,52.8,76.429,58.1,84.747,62.4a64.772,64.772,0,0,0,12.167,4.869c4.1,1.159,8.146,1.69,11.862-.789,3.931-2.623,7.453-5.2,11.95-6.841A38.54,38.54,0,0,1,134.2,57.222c8.942.069,17.757,2.855,26.442,4.722,7.082,1.521,14.66,3.038,21.881,1.575,3.013-.61,7.414-1.871,8.5-5-18.316-3.319-25.509-25.971-20.346-42.6,2.787-8.975,19.539-19.466,26.052-14.748,4.126,2.989,1.621,6.913,0,9.5-3.1,4.961-4.167,11.333,1.578,14.787,4.956,2.979,10.166-4.1,10.265-4.087,1.362.107,13.131,6.763,21.239,16.476,8-.474,9.213,4.8,7.3,9.114S223.289,56.705,216.862,57.76Z" transform="translate(0 54.469)" fill="#191847" fill-rule="evenodd"/>
            </g>
            <g id="Bottom_Sitting_Sweat-Pants" data-name="Bottom/Sitting/Sweat-Pants" transform="translate(52.942)">
              <g id="Objects_Seat_Ball" data-name="Objects/Seat/Ball">
                <ellipse id="Ballsy-Ball" cx="113" cy="108" rx="113" ry="108" transform="translate(0.476 0)" fill="#c5cfd6"/>
              </g>
              <path id="Skin" d="M224.078,0c-18.843,41.7-32.47,78.019-37.939,97.178-9.365,32.806-16.49,61.673-18.291,72.453-4.294,25.707,33.033,27.2,37.967,14.428,7.468-19.337,20.5-82.87,36.17-178.834ZM5.515,130.879C22.8,137.713,83.345,159.1,112.544,165.148c8.391,1.738,16.524,3.354,24.169,4.813,22.727,4.339,34.5-36.661,12.613-39.811C94.816,122.3,17.537,114.2,10.923,113.294,1.654,112.019-5.35,126.584,5.515,130.879Z" transform="translate(103.146 16.677)" fill="#b28b67" fill-rule="evenodd"/>
              <path id="Leg-Back" d="M93.512,145.921,0,193.524v10.363H11.121q135.7-34.579,138.689-44.321c.021-.07.041-.14.059-.21.046-.06.09-.12.134-.18,17.928-24.657,28.667-145.037,32.19-154.05L147.837,0C134.695,48.733,92.648,82.682,93.765,141.049A19.16,19.16,0,0,0,93.512,145.921Z" transform="translate(160.296 51.999)" fill="#1f28cf" fill-rule="evenodd"/>
              <path id="Leg-Front" d="M73.946,37.165c-8.556,1.713-16.436,3.241-23.177,4.424C7.219,49.227-5.48,72.539,2.029,123.4H82.268c13.108-3.765,81.225-32.331,116.568-47.525,23.392-10.056,16.018-46.307,2.771-55.741a1.293,1.293,0,0,0-.735-1.148C129.615-10.545,73.243,4.951,54.412,0L45.7,27.477Z" transform="translate(94.119 132.484)" fill="#2b44ff" fill-rule="evenodd"/>
              <g id="Accessories_Shoe_Flat-Sneaker" data-name="Accessories/Shoe/Flat-Sneaker" transform="matrix(0.438, -0.899, 0.899, 0.438, 94.195, 144.73)">
                <path id="shoe" d="M2.468,21.468Q0,14.88,0,11.609A73.79,73.79,0,0,1,1.325,0H84.27Q87.5,10.689,80.537,11.541T68.964,13.08L30.412,30.267a1.47,1.47,0,0,1-1.942-.744l-.016-.038-2.478-6.011q-6.449-3.009-10.48-3.009-3.276,0-9.047,2.646h0a2.941,2.941,0,0,1-3.9-1.448Q2.5,21.566,2.468,21.468Z" transform="translate(0)" fill="#e4e4e4" fill-rule="evenodd"/>
              </g>
              <g id="Accessories_Shoe_Flat-Sneaker-2" data-name="Accessories/Shoe/Flat-Sneaker" transform="translate(316.181 2.941)">
                <path id="shoe-2" data-name="shoe" d="M2.468,21.468Q0,14.88,0,11.609A73.79,73.79,0,0,1,1.325,0H84.27Q87.5,10.689,80.538,11.541T68.964,13.08L30.412,30.267a1.47,1.47,0,0,1-1.942-.744l-.016-.038-2.478-6.011q-6.449-3.009-10.48-3.009-3.276,0-9.048,2.646h0a2.941,2.941,0,0,1-3.9-1.448Q2.5,21.566,2.468,21.468Z" transform="translate(0 0)" fill="#e4e4e4" fill-rule="evenodd"/>
              </g>
            </g>
            <g id="Body_Jacket-2" data-name="Body/Jacket-2" transform="translate(16.177 164.708)">
              <path id="Skin-2" data-name="Skin" d="M288.239,131.447l53.288,23.4q14,13.953,27.042,21.209c2.6.828,7.04,1.078,2.3-5.843s-9.41-14.413-7.518-16.839,7.378.252,9.544-3.693q2.168-3.944-27.734-9.436l-39.908-30.6ZM72.807,125l30.135-5.979Q57.483,34.3,54.185,29.221C49.237,21.6,53.853,7.622,55.559.263c-10.7-2.491-6.479,13.612-20.018,10.25C23.183,7.444,12.705-.431,1.182,10.19-.234,11.5-1.272,15.578,3.559,17.671c12.034,5.216,29.812,14.983,32.7,18.774Q42.151,44.2,72.807,125Z" transform="translate(0)" fill="#b28b67" fill-rule="evenodd"/>
              <path id="Coat-Back" d="M0,145.3l12.478,3.281C42.412,124.226,59.3,60.907,78.432,54c18.088-6.527,42.053,3.417,70.427,16.5l10.725-19.259C135.487,20.115,80.911-9.175,56.711,2.7,18.021,21.693,2.6,100.26,0,145.3Z" transform="translate(172.183 93.006) rotate(-5)" fill="#db2721" fill-rule="evenodd"/>
              <path id="Shirt" d="M0,0H112.518c5.143,0,4.174,7.424,3.429,11.171-8.577,43.236-42.062,89.843-42.062,151.389L41.43,167.649C14.585,124.475,5.3,71.318,0,0Z" transform="translate(129.414 77.942)" fill="#dde3e9" fill-rule="evenodd"/>
              <path id="Coat-Front" d="M81.426,89.364Q47.019,27.3,23.585,0L0,4.619Q22.788,145.948,131.984,213.238h12.85q43.706-148.981,24.1-198.532H67.648C69.25,38.878,74.388,64.441,81.426,89.364Z" transform="translate(36.765 32.353)" fill="#ff4133" fill-rule="evenodd"/>
            </g>
          </g>
        </g>
      </g>
      <g id="Group_44" data-name="Group 44">
        <text id="Prediction_made_easy." data-name="Prediction made easy." transform="translate(1020 420)" fill="#fff" font-size="53" font-family="Biko-Bold, Biko" font-weight="700"><tspan x="0" y="0">Prediction made easy.</tspan></text>
        <text id="Analyse_Stocks_with_the_latest_ML-Tools" data-name="Analyse Stocks with the latest ML-Tools" transform="translate(1020 459)" fill="#fff" font-size="20" font-family="Biko" opacity="0.7"><tspan x="0" y="0">Analyse Stocks with the latest ML-Tools</tspan></text>
      </g>
    </g>
  </g>
</svg>
